<svg width="16" height="16" fill="none" xmlns="http://www.w3.org/2000/svg">
  <g clip-path="url(#prefix__clip0_1_267)">
    <path
      d="M0 14.667h16V16H0v-1.333zm16-9.394v1.394h-2v6.666H2V6.667H0V5.273a2 2 0 011.042-1.756l6-3.273a1.995 1.995 0 011.916 0l6 3.273A2 2 0 0116 5.273zM3.333 12h2V6.667h-2V12zm3.334-5.333V12h2.666V6.667H6.667zm6 0h-2V12h2V6.667zm2-1.394a.667.667 0 00-.348-.586l-6-3.272a.667.667 0 00-.638 0l-6 3.272a.667.667 0 00-.348.586v.06h13.334v-.06z"
      fill="currentColor" />
  </g>
</svg>