<svg width="16" height="16" fill="none" xmlns="http://www.w3.org/2000/svg">
  <g clip-path="url(#prefix__clip0_1_289)">
    <path
      d="M15.281 1.133a1.99 1.99 0 00-1.638-.432l-4.12.749A2.662 2.662 0 008 2.307a2.662 2.662 0 00-1.523-.859L2.357.699A2 2 0 000 2.667v11.222l8 1.456 8-1.456V2.667a1.995 1.995 0 00-.719-1.534zM7.333 13.867l-6-1.09V2.667a.667.667 0 01.786-.656l4.12.749a1.333 1.333 0 011.094 1.312v9.795zm7.334-1.091l-6 1.09V4.073A1.333 1.333 0 019.76 2.76l4.12-.749a.666.666 0 01.786.656v10.109z"
      fill="currentColor" />
  </g>
</svg>