<svg width="16" height="16" fill="none" xmlns="http://www.w3.org/2000/svg">
  <g clip-path="url(#prefix__clip0_1_305)">
    <path
      d="M14 .667H2a2 2 0 00-2 2v12.666h16V2.667a2 2 0 00-2-2zM2 2h12a.667.667 0 01.667.667v2H1.333v-2A.667.667 0 012 2zm-.667 12V6h13.334v8H1.333zm2-6h9.334v1.333H3.333V8zm0 2.667H10V12H3.333v-1.333zM2 3.333a.667.667 0 111.333 0 .667.667 0 01-1.333 0zm2 0a.667.667 0 111.333 0 .667.667 0 01-1.333 0zm2 0a.667.667 0 111.333 0 .667.667 0 01-1.333 0z"
      fill="currentColor" />
  </g>
</svg>