<svg width="16" height="13" fill="none" xmlns="http://www.w3.org/2000/svg">
  <path
    d="M14.506 1.826l.015.035-.03.021-6.465 4.503L8 6.403l-.026-.018L1.51 1.882l-.03-.021.015-.035a.678.678 0 01.274-.307.933.933 0 01.412-.125h11.637v0h.003a.933.933 0 01.412.125.678.678 0 01.274.307zm.018 1.692l.071-.05v7.366a.717.717 0 01-.227.54.837.837 0 01-.549.233h0H2.183v0h-.002a.837.837 0 01-.549-.232.717.717 0 01-.227-.54V3.468l.07.049 6.14 4.265a.707.707 0 00.385.11.707.707 0 00.385-.11l6.14-4.265zm.813-2.851c-.4-.403-.906-.61-1.52-.622H2.183C1.569.056 1.064.264.663.667c-.4.403-.607.902-.618 1.5v8.666c.011.598.217 1.098.618 1.5.4.403.906.61 1.52.622h11.633c.615-.011 1.12-.219 1.521-.621.4-.403.607-.903.618-1.501V2.167c-.011-.598-.217-1.097-.618-1.5z"
    fill="currentColor" stroke="#fff" stroke-width=".09" />
</svg>