<svg width="16" height="16" fill="none" xmlns="http://www.w3.org/2000/svg">
  <g clip-path="url(#prefix__clip0_1_333)">
    <path
      d="M6.045 10.898l3.267 3.267.471-.471a5.318 5.318 0 001.384-5.08l-.164-.666 1.39-1.391.145.145a2.057 2.057 0 002.625.266 2 2 0 00.254-3.043L12.133.636A2.056 2.056 0 009.508.37a2 2 0 00-.253 3.043l.195.195L8.057 5 7.4 4.84A5.323 5.323 0 002.31 6.22l-.472.472 3.267 3.263-4.91 4.907.943.943 4.907-4.907zm1.026-4.764l1.4.342 2.867-2.866-1.143-1.138a.667.667 0 01.09-1.019.723.723 0 01.904.127l3.282 3.282a.666.666 0 01-.089 1.019.722.722 0 01-.904-.127l-1.087-1.087-2.867 2.867.345 1.407a3.984 3.984 0 01-.6 3.297L3.764 6.734a3.99 3.99 0 013.307-.6z"
      fill="currentColor" />
  </g>
</svg>