<svg width="16" height="16" fill="none" xmlns="http://www.w3.org/2000/svg">
  <g clip-path="url(#prefix__clip0_1_301)" fill="currentColor">
    <path
      d="M13.443 8.667h-9.83l-.628-5.334H8V2H2.828L2.8 1.765A2 2 0 00.815 0H0v1.333h.815a.667.667 0 01.662.589l1.056 8.979a2 2 0 001.986 1.766h8.814v-1.334H4.52a.666.666 0 01-.662-.589L3.769 10h10.788l.6-3.333h-1.354l-.36 2zM4.667 16a1.333 1.333 0 100-2.666 1.333 1.333 0 000 2.666zM11.333 16a1.333 1.333 0 100-2.666 1.333 1.333 0 000 2.666z" />
    <path
      d="M11.385 5.695h.022a1.249 1.249 0 00.89-.369l3.508-3.507-.943-.943-3.454 3.458-1.496-1.56-.96.924 1.537 1.6a1.248 1.248 0 00.896.397z" />
  </g>
</svg>