<svg width="16" height="16" fill="none" xmlns="http://www.w3.org/2000/svg">
  <path
    d="M16 6.667L14.533 0H1.467L.016 6.522 0 7.333c.002.644.24 1.264.667 1.746V14a2 2 0 002 2h10.666a2 2 0 002-2V9.079A2.644 2.644 0 0016 7.333v-.666zm-14.667.072l1.2-5.406h2.134V4H6V1.333h4V4h1.333V1.333h2.134l1.2 5.406v.594a1.333 1.333 0 01-1.334 1.334h-.666a1.333 1.333 0 01-1.334-1.334H10a1.333 1.333 0 01-1.333 1.334H7.333A1.333 1.333 0 016 7.333H4.667a1.333 1.333 0 01-1.334 1.334h-.666a1.333 1.333 0 01-1.334-1.334V6.74zm12 7.928H2.667A.667.667 0 012 14V9.905c.217.06.441.092.667.095h.666a2.65 2.65 0 002-.921 2.65 2.65 0 002 .921h1.334a2.66 2.66 0 002-.905 2.66 2.66 0 002 .905h.666c.226-.003.45-.035.667-.095V14a.666.666 0 01-.667.667z"
    fill="currentColor" />
</svg>