<svg width="14" height="14" fill="none" xmlns="http://www.w3.org/2000/svg">
  <path
    d="M4.6 10.333l2.4-2.4 2.4 2.4.933-.933-2.4-2.4 2.4-2.4-.933-.933-2.4 2.4-2.4-2.4-.933.933 2.4 2.4-2.4 2.4.933.933zM7 13.667a6.492 6.492 0 01-2.6-.525 6.732 6.732 0 01-2.117-1.425A6.733 6.733 0 01.858 9.6 6.492 6.492 0 01.333 7c0-.922.175-1.789.525-2.6a6.732 6.732 0 011.425-2.117c.6-.6 1.306-1.075 2.117-1.425A6.492 6.492 0 017 .333c.922 0 1.789.175 2.6.525.811.35 1.517.825 2.117 1.425.6.6 1.075 1.306 1.425 2.117.35.811.525 1.678.525 2.6 0 .922-.175 1.789-.525 2.6a6.733 6.733 0 01-1.425 2.117c-.6.6-1.306 1.075-2.117 1.425a6.492 6.492 0 01-2.6.525z"
    fill="currentColor" />
</svg>